<svg width="32" height="32" viewBox="0 0 32 32" fill="none" xmlns="http://www.w3.org/2000/svg">
    <path d="M28.75 14C28.75 13.2707 28.4603 12.5712 27.9445 12.0555C27.4288 11.5397 26.7293 11.25 26 11.25H16.75V9.67501C17.5965 9.50103 18.3571 9.04049 18.9036 8.37104C19.4501 7.7016 19.749 6.86419 19.75 6.00001C19.75 2.63751 16.5525 0.466264 16.4163 0.375014C16.293 0.292784 16.1482 0.248901 16 0.248901C15.8518 0.248901 15.707 0.292784 15.5837 0.375014C15.4475 0.466264 12.25 2.63751 12.25 6.00001C12.251 6.86419 12.5499 7.7016 13.0964 8.37104C13.6429 9.04049 14.4035 9.50103 15.25 9.67501V11.25H6C5.27065 11.25 4.57118 11.5397 4.05546 12.0555C3.53973 12.5712 3.25 13.2707 3.25 14V16.9163C3.25082 17.9815 3.60224 19.0169 4.25 19.8625V25C4.25 25.7294 4.53973 26.4288 5.05546 26.9446C5.57118 27.4603 6.27065 27.75 7 27.75H25C25.7293 27.75 26.4288 27.4603 26.9445 26.9446C27.4603 26.4288 27.75 25.7294 27.75 25V19.8625C28.3978 19.0169 28.7492 17.9815 28.75 16.9163V14ZM13.75 6.00001C13.75 4.07501 15.25 2.57376 16 1.94501C16.75 2.57001 18.25 4.07001 18.25 6.00001C18.25 6.59675 18.0129 7.16905 17.591 7.591C17.169 8.01296 16.5967 8.25001 16 8.25001C15.4033 8.25001 14.831 8.01296 14.409 7.591C13.9871 7.16905 13.75 6.59675 13.75 6.00001ZM4.75 14C4.75 13.6685 4.8817 13.3506 5.11612 13.1161C5.35054 12.8817 5.66848 12.75 6 12.75H26C26.3315 12.75 26.6495 12.8817 26.8839 13.1161C27.1183 13.3506 27.25 13.6685 27.25 14V16.9163C27.25 18.7063 25.8338 20.2013 24.0925 20.2488C23.6581 20.2611 23.2256 20.1863 22.8206 20.0285C22.4157 19.8708 22.0465 19.6335 21.7348 19.3306C21.4232 19.0277 21.1755 18.6654 21.0063 18.2651C20.8371 17.8648 20.75 17.4346 20.75 17C20.75 16.8011 20.671 16.6103 20.5303 16.4697C20.3897 16.329 20.1989 16.25 20 16.25C19.8011 16.25 19.6103 16.329 19.4697 16.4697C19.329 16.6103 19.25 16.8011 19.25 17C19.25 17.862 18.9076 18.6886 18.2981 19.2981C17.6886 19.9076 16.862 20.25 16 20.25C15.138 20.25 14.3114 19.9076 13.7019 19.2981C13.0924 18.6886 12.75 17.862 12.75 17C12.75 16.8011 12.671 16.6103 12.5303 16.4697C12.3897 16.329 12.1989 16.25 12 16.25C11.8011 16.25 11.6103 16.329 11.4697 16.4697C11.329 16.6103 11.25 16.8011 11.25 17C11.2502 17.4347 11.1631 17.865 10.9941 18.2655C10.825 18.6659 10.5773 19.0284 10.2656 19.3314C9.95397 19.6345 9.58469 19.8719 9.17965 20.0297C8.7746 20.1875 8.34202 20.2624 7.9075 20.25C6.16625 20.2013 4.75 18.7063 4.75 16.9163V14ZM25 26.25H7C6.66848 26.25 6.35054 26.1183 6.11612 25.8839C5.8817 25.6495 5.75 25.3315 5.75 25V21.1638C6.39812 21.5274 7.12467 21.7285 7.8675 21.75C8.50264 21.7689 9.13507 21.6595 9.72698 21.4284C10.3189 21.1973 10.8581 20.8492 11.3125 20.405C11.5725 20.1508 11.8031 19.8682 12 19.5625C12.4297 20.2335 13.0213 20.7856 13.7203 21.168C14.4193 21.5504 15.2032 21.7508 16 21.7508C16.7968 21.7508 17.5807 21.5504 18.2797 21.168C18.9787 20.7856 19.5703 20.2335 20 19.5625C20.1977 19.8683 20.4291 20.151 20.69 20.405C21.5742 21.2701 22.763 21.7531 24 21.75H24.1338C24.8762 21.7283 25.6023 21.5272 26.25 21.1638V25C26.25 25.3315 26.1183 25.6495 25.8839 25.8839C25.6495 26.1183 25.3315 26.25 25 26.25Z" fill="#22C1C1"/>
</svg>
