<svg width="65" height="64" viewBox="0 0 65 64" fill="none" xmlns="http://www.w3.org/2000/svg">
    <circle opacity="0.15" cx="32.043" cy="32" r="32" fill="#F69134"/>
    <g clip-path="url(#clip0_41_1689)">
    <path d="M47.043 31.25H45.793V27C45.793 26.5359 45.6086 26.0908 45.2804 25.7626C44.9522 25.4344 44.5071 25.25 44.043 25.25H41.793V24C41.793 23.5359 41.6086 23.0908 41.2804 22.7626C40.9522 22.4344 40.5071 22.25 40.043 22.25H37.043C36.5788 22.25 36.1337 22.4344 35.8055 22.7626C35.4773 23.0908 35.293 23.5359 35.293 24V31.25H28.793V24C28.793 23.5359 28.6086 23.0908 28.2804 22.7626C27.9522 22.4344 27.5071 22.25 27.043 22.25H24.043C23.5788 22.25 23.1337 22.4344 22.8055 22.7626C22.4773 23.0908 22.293 23.5359 22.293 24V25.25H20.043C19.5788 25.25 19.1337 25.4344 18.8055 25.7626C18.4773 26.0908 18.293 26.5359 18.293 27V31.25H17.043C16.8441 31.25 16.6533 31.329 16.5126 31.4697C16.372 31.6103 16.293 31.8011 16.293 32C16.293 32.1989 16.372 32.3897 16.5126 32.5303C16.6533 32.671 16.8441 32.75 17.043 32.75H18.293V37C18.293 37.4641 18.4773 37.9092 18.8055 38.2374C19.1337 38.5656 19.5788 38.75 20.043 38.75H22.293V40C22.293 40.4641 22.4773 40.9092 22.8055 41.2374C23.1337 41.5656 23.5788 41.75 24.043 41.75H27.043C27.5071 41.75 27.9522 41.5656 28.2804 41.2374C28.6086 40.9092 28.793 40.4641 28.793 40V32.75H35.293V40C35.293 40.4641 35.4773 40.9092 35.8055 41.2374C36.1337 41.5656 36.5788 41.75 37.043 41.75H40.043C40.5071 41.75 40.9522 41.5656 41.2804 41.2374C41.6086 40.9092 41.793 40.4641 41.793 40V38.75H44.043C44.5071 38.75 44.9522 38.5656 45.2804 38.2374C45.6086 37.9092 45.793 37.4641 45.793 37V32.75H47.043C47.2419 32.75 47.4326 32.671 47.5733 32.5303C47.714 32.3897 47.793 32.1989 47.793 32C47.793 31.8011 47.714 31.6103 47.5733 31.4697C47.4326 31.329 47.2419 31.25 47.043 31.25ZM20.043 37.25C19.9767 37.25 19.9131 37.2237 19.8662 37.1768C19.8193 37.1299 19.793 37.0663 19.793 37V27C19.793 26.9337 19.8193 26.8701 19.8662 26.8232C19.9131 26.7763 19.9767 26.75 20.043 26.75H22.293V37.25H20.043ZM27.293 40C27.293 40.0663 27.2666 40.1299 27.2197 40.1768C27.1729 40.2237 27.1093 40.25 27.043 40.25H24.043C23.9767 40.25 23.9131 40.2237 23.8662 40.1768C23.8193 40.1299 23.793 40.0663 23.793 40V24C23.793 23.9337 23.8193 23.8701 23.8662 23.8232C23.9131 23.7763 23.9767 23.75 24.043 23.75H27.043C27.1093 23.75 27.1729 23.7763 27.2197 23.8232C27.2666 23.8701 27.293 23.9337 27.293 24V40ZM40.293 40C40.293 40.0663 40.2666 40.1299 40.2197 40.1768C40.1729 40.2237 40.1093 40.25 40.043 40.25H37.043C36.9767 40.25 36.9131 40.2237 36.8662 40.1768C36.8193 40.1299 36.793 40.0663 36.793 40V24C36.793 23.9337 36.8193 23.8701 36.8662 23.8232C36.9131 23.7763 36.9767 23.75 37.043 23.75H40.043C40.1093 23.75 40.1729 23.7763 40.2197 23.8232C40.2666 23.8701 40.293 23.9337 40.293 24V40ZM44.293 37C44.293 37.0663 44.2666 37.1299 44.2197 37.1768C44.1729 37.2237 44.1093 37.25 44.043 37.25H41.793V26.75H44.043C44.1093 26.75 44.1729 26.7763 44.2197 26.8232C44.2666 26.8701 44.293 26.9337 44.293 27V37Z" fill="#F69134"/>
    </g>
    <defs>
    <clipPath id="clip0_41_1689">
    <rect width="32" height="32" fill="white" transform="translate(16.043 16)"/>
    </clipPath>
    </defs>
</svg>
