<svg width="32" height="32" viewBox="0 0 32 32" fill="none" xmlns="http://www.w3.org/2000/svg">
    <path d="M26.0005 3.25H21.0005C20.8016 3.25 20.6108 3.32902 20.4701 3.46967C20.3295 3.61032 20.2505 3.80109 20.2505 4C20.2505 4.19891 20.3295 4.38968 20.4701 4.53033C20.6108 4.67098 20.8016 4.75 21.0005 4.75H24.1905L20.4405 8.4925C19.5583 7.61835 18.4791 6.969 17.2935 6.59913C16.108 6.22925 14.851 6.1497 13.6283 6.36716C12.4056 6.58463 11.253 7.09274 10.2677 7.84871C9.28245 8.60467 8.49326 9.58635 7.96664 10.7111C7.44002 11.8358 7.1914 13.0705 7.24172 14.3114C7.29203 15.5523 7.63981 16.7629 8.25575 17.8412C8.8717 18.9196 9.73778 19.8342 10.781 20.5079C11.8243 21.1816 13.0142 21.5947 14.2505 21.7125V24.25H11.0005C10.8016 24.25 10.6108 24.329 10.4701 24.4697C10.3295 24.6103 10.2505 24.8011 10.2505 25C10.2505 25.1989 10.3295 25.3897 10.4701 25.5303C10.6108 25.671 10.8016 25.75 11.0005 25.75H14.2505V29C14.2505 29.1989 14.3295 29.3897 14.4701 29.5303C14.6108 29.671 14.8016 29.75 15.0005 29.75C15.1994 29.75 15.3902 29.671 15.5308 29.5303C15.6715 29.3897 15.7505 29.1989 15.7505 29V25.75H19.0005C19.1994 25.75 19.3902 25.671 19.5308 25.5303C19.6715 25.3897 19.7505 25.1989 19.7505 25C19.7505 24.8011 19.6715 24.6103 19.5308 24.4697C19.3902 24.329 19.1994 24.25 19.0005 24.25H15.7505V21.7125C17.0879 21.5817 18.3683 21.1053 19.4661 20.3302C20.5638 19.5551 21.4412 18.5079 22.012 17.2914C22.5828 16.0749 22.8275 14.7308 22.7221 13.3911C22.6166 12.0515 22.1646 10.7622 21.4105 9.65L25.2505 5.81V9C25.2505 9.19891 25.3295 9.38968 25.4701 9.53033C25.6108 9.67098 25.8016 9.75 26.0005 9.75C26.1994 9.75 26.3902 9.67098 26.5308 9.53033C26.6715 9.38968 26.7505 9.19891 26.7505 9V4C26.7505 3.80109 26.6715 3.61032 26.5308 3.46967C26.3902 3.32902 26.1994 3.25 26.0005 3.25ZM15.0005 20.25C13.7643 20.25 12.556 19.8834 11.5282 19.1967C10.5004 18.5099 9.69927 17.5338 9.22623 16.3918C8.75318 15.2497 8.62941 13.9931 8.87057 12.7807C9.11172 11.5683 9.70698 10.4547 10.5811 9.58058C11.4551 8.7065 12.5688 8.11125 13.7812 7.87009C14.9935 7.62893 16.2502 7.75271 17.3922 8.22575C18.5343 8.6988 19.5104 9.49988 20.1972 10.5277C20.8839 11.5555 21.2505 12.7639 21.2505 14C21.2485 15.657 20.5894 17.2456 19.4177 18.4172C18.246 19.5889 16.6575 20.248 15.0005 20.25Z" fill="#F24E1E"/>
</svg>
