<svg width="65" height="64" viewBox="0 0 65 64" fill="none" xmlns="http://www.w3.org/2000/svg">
<circle opacity="0.15" cx="32.043" cy="32" r="32" fill="#F21E84"/>
<path d="M44.043 29.25H42.7642C42.5658 26.5422 41.3501 24.0098 39.3613 22.1614C37.3725 20.3131 34.758 19.2857 32.043 19.2857C29.3279 19.2857 26.7134 20.3131 24.7246 22.1614C22.7359 24.0098 21.5202 26.5422 21.3217 29.25H20.043C19.8441 29.25 19.6533 29.329 19.5126 29.4697C19.372 29.6103 19.293 29.8011 19.293 30C19.2974 32.3581 19.9535 34.6691 21.1888 36.6778C22.4241 38.6865 24.1905 40.3146 26.293 41.3825V42C26.293 42.4642 26.4773 42.9093 26.8055 43.2375C27.1337 43.5656 27.5788 43.75 28.043 43.75H36.043C36.5071 43.75 36.9522 43.5656 37.2804 43.2375C37.6086 42.9093 37.793 42.4642 37.793 42V41.3825C39.8954 40.3146 41.6618 38.6865 42.8971 36.6778C44.1324 34.6691 44.7885 32.3581 44.793 30C44.793 29.8011 44.714 29.6103 44.5733 29.4697C44.4326 29.329 44.2419 29.25 44.043 29.25ZM37.823 22.7863C38.1859 23.0769 38.5264 23.3945 38.8417 23.7363C37.4495 24.1696 36.1602 24.882 35.0523 25.8299C33.9445 26.7779 33.0413 27.9416 32.398 29.25H28.2105C28.8012 27.3687 29.9757 25.7245 31.5639 24.5558C33.152 23.387 35.0711 22.7546 37.043 22.75C37.303 22.75 37.5642 22.7638 37.823 22.7863ZM39.8305 25.0175C40.6482 26.2892 41.1394 27.743 41.2605 29.25H34.103C34.73 28.2006 35.5592 27.2861 36.5424 26.5595C37.5256 25.833 38.6432 25.3089 39.8305 25.0175ZM32.043 20.75C33.1888 20.7482 34.3249 20.9601 35.393 21.375C33.3299 21.7007 31.4057 22.6181 29.8538 24.016C28.302 25.4139 27.1892 27.2321 26.6505 29.25H22.8255C23.0164 26.9356 24.0698 24.7773 25.777 23.203C27.4843 21.6286 29.7207 20.7531 32.043 20.75ZM36.7305 40.23C36.5998 40.2899 36.4891 40.3861 36.4116 40.5071C36.334 40.6281 36.2928 40.7688 36.293 40.9125V42C36.293 42.0663 36.2666 42.1299 36.2197 42.1768C36.1729 42.2237 36.1093 42.25 36.043 42.25H28.043C27.9767 42.25 27.9131 42.2237 27.8662 42.1768C27.8193 42.1299 27.793 42.0663 27.793 42V40.9125C27.7931 40.7688 27.7519 40.6281 27.6744 40.5071C27.5968 40.3861 27.4861 40.2899 27.3555 40.23C25.5156 39.3815 23.9379 38.0538 22.7877 36.3858C21.6375 34.7179 20.9571 32.7713 20.818 30.75H43.268C43.1288 32.7713 42.4485 34.7179 41.2982 36.3858C40.148 38.0538 38.5703 39.3815 36.7305 40.23Z" fill="#F21E84"/>
</svg>
