<svg width="32" height="32" viewBox="0 0 32 32" fill="none" xmlns="http://www.w3.org/2000/svg">
    <path d="M10.4401 27.9999H19.5936C25.3683 27.9999 28 23.7323 28 19.7697C27.9565 18.8401 27.7249 17.9291 27.3196 17.0927C26.9142 16.2562 26.3435 15.5118 25.6425 14.905C24.2005 13.5223 22.2973 12.7318 20.3062 12.6885C18.9763 12.7623 17.686 13.1708 16.5536 13.8766C15.4212 14.5825 14.4828 15.5631 13.8245 16.7286C13.3756 15.8289 12.7263 14.5242 12.2085 13.4752H13.9062C14.4088 13.4435 14.8861 13.2426 15.2614 12.9048C15.6368 12.5671 15.8885 12.1121 15.976 11.613C16.2904 11.3484 16.5405 11.015 16.7074 10.6383C16.8742 10.2616 16.9534 9.85144 16.9387 9.43923C16.9387 6.48444 13.6545 5.00139 11.8293 5.00139C9.33631 4.94249 8.61327 6.76442 7.96558 8.39432L7.93752 8.46694C7.53431 9.50943 4.00005 18.7482 4.00005 21.5537C3.99317 23.2674 4.65527 24.9153 5.84374 26.1424C6.44509 26.749 7.16258 27.2262 7.95269 27.5452C8.7428 27.8642 9.58905 28.0184 10.4401 27.9983V27.9999ZM9.4309 9.05999C10.1307 7.29696 10.5187 6.61596 11.7604 6.61596H11.8149C13.0101 6.61596 15.3347 7.61245 15.3347 9.44003C15.3563 9.624 15.3283 9.80958 15.2529 9.97903V9.97984C15.1515 9.84277 15.0276 9.72407 14.8866 9.62884C14.7662 9.54382 14.624 9.49562 14.477 9.49006H14.0513C13.6361 8.96317 12.36 8.028 11.3668 8.20389L12.4064 9.53444H13.8918L14.1066 10.05C14.3728 10.6875 14.2806 11.0046 14.1948 11.1434C14.1589 11.2017 14.1101 11.2509 14.0523 11.2873C13.9945 11.3236 13.9292 11.3462 13.8614 11.3531H8.82569L9.32108 12.0027C9.53832 12.2875 9.82689 12.5094 10.1099 12.678C10.1115 12.7994 10.1402 12.9188 10.194 13.0274L10.4161 13.4752V13.4769C10.8866 14.4249 11.9752 16.6213 12.5612 17.7928C12.5411 17.8219 12.5211 17.8518 12.5026 17.8816L10.1836 21.6747C10.0722 21.8571 10.0373 22.0765 10.0866 22.2847C10.1359 22.4929 10.2654 22.6729 10.4465 22.785C10.6277 22.8971 10.8456 22.9323 11.0525 22.8826C11.2593 22.833 11.4381 22.7027 11.5495 22.5204L13.6337 19.1097C13.7058 19.1266 13.778 19.1363 13.8525 19.1371C13.9335 19.1339 14.0137 19.121 14.0914 19.0992L16.2437 22.668C16.3541 22.851 16.5321 22.9823 16.7386 23.0332C16.9452 23.084 17.1633 23.0502 17.3451 22.9391C17.5269 22.8281 17.6574 22.6489 17.7079 22.4409C17.7584 22.233 17.7248 22.0134 17.6145 21.8305L15.2385 17.8905C15.2043 17.8342 15.1669 17.7801 15.1263 17.7283C15.6229 16.7562 16.3608 15.9299 17.2682 15.3294C18.1757 14.729 19.2219 14.3749 20.3054 14.3015C21.8926 14.3426 23.4076 14.9793 24.5539 16.0863C25.0894 16.5457 25.5283 17.1082 25.8448 17.7407C26.1612 18.3733 26.3489 19.0631 26.3968 19.7697C26.396 23.0634 24.2918 26.3861 19.5936 26.3861H10.4401C9.80214 26.4045 9.16708 26.2924 8.57338 26.0567C7.97967 25.8209 7.43966 25.4663 6.98602 25.0144C6.09418 24.093 5.5981 22.8555 5.60486 21.569C5.60486 19.4389 8.36878 11.8106 9.4309 9.05999Z" fill="#9747FF"/>
</svg>
