<svg width="32" height="32" viewBox="0 0 32 32" fill="none" xmlns="http://www.w3.org/2000/svg">
    <path d="M11.5 17.25C11.2528 17.25 11.0111 17.1767 10.8055 17.0393C10.6 16.902 10.4398 16.7068 10.3452 16.4784C10.2505 16.2499 10.2258 15.9986 10.274 15.7561C10.3223 15.5137 10.4413 15.2909 10.6161 15.1161C10.7909 14.9413 11.0137 14.8222 11.2561 14.774C11.4986 14.7258 11.75 14.7505 11.9784 14.8452C12.2068 14.9398 12.402 15.1 12.5393 15.3055C12.6767 15.5111 12.75 15.7528 12.75 16C12.75 16.3315 12.6183 16.6495 12.3839 16.8839C12.1495 17.1183 11.8315 17.25 11.5 17.25ZM20.5 14.75C20.2528 14.75 20.0111 14.8233 19.8055 14.9607C19.6 15.098 19.4398 15.2932 19.3452 15.5216C19.2505 15.7501 19.2258 16.0014 19.274 16.2439C19.3223 16.4863 19.4413 16.7091 19.6161 16.8839C19.7909 17.0587 20.0137 17.1777 20.2561 17.226C20.4986 17.2742 20.75 17.2495 20.9784 17.1549C21.2068 17.0602 21.402 16.9 21.5393 16.6945C21.6767 16.4889 21.75 16.2472 21.75 16C21.75 15.6685 21.6183 15.3505 21.3839 15.1161C21.1495 14.8817 20.8315 14.75 20.5 14.75ZM19.1 20.365C18.1694 20.9431 17.0956 21.2494 16 21.2494C14.9044 21.2494 13.8307 20.9431 12.9 20.365C12.7316 20.2589 12.5279 20.2241 12.3338 20.2681C12.1397 20.3122 11.9711 20.4316 11.865 20.6C11.7589 20.7684 11.7241 20.9721 11.7682 21.1662C11.8122 21.3603 11.9316 21.5289 12.1 21.635C13.2702 22.3641 14.6213 22.7506 16 22.7506C17.3787 22.7506 18.7298 22.3641 19.9 21.635C19.9834 21.5825 20.0556 21.514 20.1126 21.4336C20.1695 21.3531 20.21 21.2623 20.2319 21.1662C20.2537 21.0701 20.2564 20.9706 20.2397 20.8735C20.2231 20.7763 20.1875 20.6834 20.135 20.6C20.0825 20.5166 20.014 20.4444 19.9336 20.3874C19.8532 20.3305 19.7623 20.29 19.6662 20.2681C19.5701 20.2463 19.4706 20.2436 19.3735 20.2603C19.2763 20.2769 19.1834 20.3125 19.1 20.365ZM28.75 16C28.75 18.5217 28.0022 20.9868 26.6012 23.0835C25.2003 25.1802 23.209 26.8144 20.8792 27.7795C18.5495 28.7445 15.9859 28.997 13.5126 28.505C11.0393 28.0131 8.76751 26.7987 6.98439 25.0156C5.20127 23.2325 3.98696 20.9607 3.49499 18.4874C3.00303 16.0141 3.25552 13.4505 4.22054 11.1208C5.18556 8.79103 6.81976 6.79975 8.91648 5.39876C11.0132 3.99777 13.4783 3.25 16 3.25C19.3803 3.25397 22.621 4.59854 25.0112 6.98877C27.4015 9.379 28.746 12.6197 28.75 16ZM27.25 16C27.2465 13.0808 26.1098 10.277 24.0794 8.17953C22.0491 6.08205 19.2838 4.85473 16.3663 4.75625C14.7875 6.90375 14.75 8.98125 14.75 9C14.75 9.33152 14.8817 9.64946 15.1161 9.88388C15.3505 10.1183 15.6685 10.25 16 10.25C16.3315 10.25 16.6495 10.1183 16.8839 9.88388C17.1183 9.64946 17.25 9.33152 17.25 9C17.25 8.80109 17.329 8.61032 17.4697 8.46967C17.6103 8.32902 17.8011 8.25 18 8.25C18.1989 8.25 18.3897 8.32902 18.5303 8.46967C18.671 8.61032 18.75 8.80109 18.75 9C18.75 9.72935 18.4603 10.4288 17.9445 10.9445C17.4288 11.4603 16.7294 11.75 16 11.75C15.2707 11.75 14.5712 11.4603 14.0555 10.9445C13.5397 10.4288 13.25 9.72935 13.25 9C13.25 8.90625 13.2688 7.0225 14.5175 4.8475C12.3746 5.13237 10.3592 6.0286 8.71233 7.42896C7.06549 8.82932 5.85697 10.6745 5.23138 12.7437C4.6058 14.813 4.58963 17.0186 5.18481 19.0968C5.78 21.175 6.96134 23.0377 8.58748 24.4621C10.2136 25.8864 12.2157 26.8121 14.3542 27.1284C16.4927 27.4446 18.677 27.138 20.6458 26.2453C22.6146 25.3526 24.2845 23.9116 25.4557 22.0946C26.627 20.2777 27.2499 18.1617 27.25 16Z" fill="#FFC700"/>
</svg>
