<svg width="32" height="32" viewBox="0 0 32 32" fill="none" xmlns="http://www.w3.org/2000/svg">
    <path d="M16.0003 8.75C16.742 8.75 17.467 8.53007 18.0837 8.11801C18.7003 7.70596 19.181 7.12029 19.4648 6.43506C19.7487 5.74984 19.8229 4.99584 19.6782 4.26841C19.5335 3.54098 19.1764 2.8728 18.6519 2.34835C18.1275 1.8239 17.4593 1.46675 16.7319 1.32206C16.0044 1.17736 15.2504 1.25162 14.5652 1.53545C13.88 1.81928 13.2943 2.29993 12.8823 2.91661C12.4702 3.5333 12.2503 4.25832 12.2503 5C12.2503 5.99456 12.6454 6.94839 13.3486 7.65165C14.0519 8.35491 15.0057 8.75 16.0003 8.75ZM16.0003 2.75C16.4453 2.75 16.8803 2.88196 17.2503 3.12919C17.6203 3.37643 17.9087 3.72783 18.079 4.13896C18.2493 4.5501 18.2939 5.0025 18.207 5.43895C18.1202 5.87541 17.9059 6.27632 17.5913 6.59099C17.2766 6.90566 16.8757 7.11995 16.4392 7.20677C16.0028 7.29359 15.5504 7.24903 15.1392 7.07873C14.7281 6.90843 14.3767 6.62004 14.1295 6.25003C13.8822 5.88002 13.7503 5.44501 13.7503 5C13.7503 4.40326 13.9873 3.83097 14.4093 3.40901C14.8312 2.98705 15.4035 2.75 16.0003 2.75ZM27.1103 16.9275L21.459 10.52C21.1072 10.1209 20.6744 9.80126 20.1895 9.58229C19.7046 9.36332 19.1786 9.25005 18.6465 9.25H13.354C12.8221 9.24989 12.2962 9.36297 11.8112 9.58172C11.3263 9.80047 10.8935 10.1199 10.5415 10.5188L4.89028 16.9275C4.68032 17.1355 4.51339 17.3828 4.39902 17.6553C4.28464 17.9278 4.22505 18.2201 4.22366 18.5156C4.22084 19.1125 4.45524 19.686 4.87528 20.11C5.29531 20.534 5.86658 20.7738 6.46342 20.7766C7.06025 20.7794 7.63376 20.545 8.05778 20.125L10.6965 18.0088L8.43028 26.615C8.19203 27.1564 8.17656 27.7698 8.38722 28.3226C8.59788 28.8753 9.01771 29.3228 9.55586 29.5683C10.094 29.8138 10.7072 29.8375 11.2627 29.6343C11.8182 29.4311 12.2713 29.0173 12.524 28.4825L16.0003 22.5L19.4765 28.4888C19.7292 29.0236 20.1824 29.4373 20.7379 29.6406C21.2934 29.8438 21.9065 29.8201 22.4447 29.5746C22.9828 29.3291 23.4027 28.8815 23.6133 28.3288C23.824 27.7761 23.8085 27.1627 23.5703 26.6213L21.304 18.0125L23.9428 20.125C24.3693 20.5305 24.9378 20.7527 25.5263 20.744C26.1148 20.7353 26.6765 20.4963 27.0908 20.0784C27.5052 19.6604 27.7393 19.0967 27.7429 18.5081C27.7466 17.9196 27.5195 17.3531 27.1103 16.93V16.9275ZM26.0315 19.03C25.9619 19.0997 25.8792 19.1551 25.7881 19.1928C25.6971 19.2305 25.5995 19.25 25.5009 19.25C25.4023 19.25 25.3047 19.2305 25.2137 19.1928C25.1226 19.1551 25.0399 19.0997 24.9703 19.03C24.9513 19.0101 24.9309 18.9917 24.909 18.975L20.4703 15.415C20.3472 15.3162 20.1962 15.2588 20.0387 15.2508C19.8811 15.2429 19.725 15.2848 19.5927 15.3706C19.4603 15.4565 19.3584 15.5818 19.3014 15.729C19.2444 15.8761 19.2353 16.0374 19.2753 16.19L22.134 27.0563C22.1465 27.0989 22.162 27.1407 22.1803 27.1813C22.2643 27.3616 22.2733 27.5679 22.2052 27.7549C22.1371 27.9418 21.9975 28.0941 21.8172 28.1781C21.6368 28.2622 21.4305 28.2711 21.2435 28.203C21.0566 28.1349 20.9043 27.9953 20.8203 27.815C20.8111 27.7944 20.8007 27.7743 20.789 27.755L16.649 20.625C16.5831 20.5113 16.4885 20.417 16.3746 20.3514C16.2608 20.2858 16.1317 20.2513 16.0003 20.2513C15.8689 20.2513 15.7398 20.2858 15.6259 20.3514C15.5121 20.417 15.4175 20.5113 15.3515 20.625L11.2115 27.7563C11.1999 27.7756 11.1894 27.7956 11.1803 27.8163C11.0962 27.9966 10.944 28.1362 10.757 28.2043C10.5701 28.2724 10.3637 28.2634 10.1834 28.1794C10.0031 28.0953 9.86348 27.9431 9.79538 27.7561C9.72728 27.5692 9.73623 27.3629 9.82027 27.1825C9.83858 27.142 9.85403 27.1002 9.86653 27.0575L12.7253 16.1913C12.7647 16.0392 12.7553 15.8786 12.6986 15.7322C12.6418 15.5858 12.5406 15.4608 12.409 15.375C12.2876 15.295 12.1457 15.2516 12.0003 15.25C11.8294 15.2499 11.6636 15.3081 11.5303 15.415L7.09153 18.975C7.06968 18.9917 7.0492 19.0101 7.03028 19.03C6.88954 19.1707 6.69867 19.2498 6.49965 19.2498C6.30063 19.2498 6.10976 19.1707 5.96903 19.03C5.82829 18.8893 5.74923 18.6984 5.74923 18.4994C5.74923 18.3004 5.82829 18.1095 5.96903 17.9688L6.00153 17.935L11.6665 11.5113C11.8777 11.2719 12.1374 11.0803 12.4284 10.949C12.7193 10.8178 13.0348 10.7499 13.354 10.75H18.6465C18.9657 10.7499 19.2812 10.8178 19.5722 10.949C19.8631 11.0803 20.1228 11.2719 20.334 11.5113L26.0003 17.935L26.0328 17.9688C26.1024 18.0385 26.1576 18.1213 26.1953 18.2124C26.2329 18.3035 26.2522 18.4011 26.2521 18.4996C26.252 18.5982 26.2325 18.6958 26.1946 18.7868C26.1568 18.8778 26.1013 18.9604 26.0315 19.03Z" fill="#F21E84"/>
</svg>
