<svg width="65" height="64" viewBox="0 0 65 64" fill="none" xmlns="http://www.w3.org/2000/svg">
    <circle opacity="0.15" cx="32.043" cy="32" r="32" fill="#22C1C1"/>
    <path d="M45.7934 28C45.7934 28.1989 45.7144 28.3897 45.5737 28.5303C45.4331 28.671 45.2423 28.75 45.0434 28.75H42.7934V31C42.7934 31.1989 42.7144 31.3897 42.5737 31.5303C42.4331 31.671 42.2423 31.75 42.0434 31.75C41.8445 31.75 41.6537 31.671 41.5131 31.5303C41.3724 31.3897 41.2934 31.1989 41.2934 31V28.75H39.0434C38.8445 28.75 38.6537 28.671 38.5131 28.5303C38.3724 28.3897 38.2934 28.1989 38.2934 28C38.2934 27.8011 38.3724 27.6103 38.5131 27.4697C38.6537 27.329 38.8445 27.25 39.0434 27.25H41.2934V25C41.2934 24.8011 41.3724 24.6103 41.5131 24.4697C41.6537 24.329 41.8445 24.25 42.0434 24.25C42.2423 24.25 42.4331 24.329 42.5737 24.4697C42.7144 24.6103 42.7934 24.8011 42.7934 25V27.25H45.0434C45.2423 27.25 45.4331 27.329 45.5737 27.4697C45.7144 27.6103 45.7934 27.8011 45.7934 28ZM34.0434 22.75H35.2934V24C35.2934 24.1989 35.3724 24.3897 35.5131 24.5303C35.6537 24.671 35.8445 24.75 36.0434 24.75C36.2423 24.75 36.4331 24.671 36.5737 24.5303C36.7144 24.3897 36.7934 24.1989 36.7934 24V22.75H38.0434C38.2423 22.75 38.4331 22.671 38.5737 22.5303C38.7144 22.3897 38.7934 22.1989 38.7934 22C38.7934 21.8011 38.7144 21.6103 38.5737 21.4697C38.4331 21.329 38.2423 21.25 38.0434 21.25H36.7934V20C36.7934 19.8011 36.7144 19.6103 36.5737 19.4697C36.4331 19.329 36.2423 19.25 36.0434 19.25C35.8445 19.25 35.6537 19.329 35.5131 19.4697C35.3724 19.6103 35.2934 19.8011 35.2934 20V21.25H34.0434C33.8445 21.25 33.6537 21.329 33.5131 21.4697C33.3724 21.6103 33.2934 21.8011 33.2934 22C33.2934 22.1989 33.3724 22.3897 33.5131 22.5303C33.6537 22.671 33.8445 22.75 34.0434 22.75ZM42.9497 35.285C43.0369 35.3867 43.0953 35.5099 43.1189 35.6418C43.1424 35.7736 43.1301 35.9094 43.0834 36.035C42.4047 37.8886 41.27 39.5413 39.7839 40.8406C38.2979 42.1399 36.5085 43.0439 34.5809 43.4691C32.6534 43.8943 30.6497 43.827 28.755 43.2735C26.8602 42.72 25.1355 41.6981 23.7399 40.3021C22.3444 38.9061 21.323 37.181 20.7701 35.286C20.2172 33.3911 20.1507 31.3875 20.5765 29.46C21.0024 27.5326 21.9069 25.7435 23.2067 24.2579C24.5065 22.7723 26.1596 21.6381 28.0134 20.96C28.1382 20.9146 28.2729 20.9031 28.4036 20.9268C28.5343 20.9505 28.6563 21.0085 28.7573 21.0948C28.8582 21.1811 28.9345 21.2927 28.9781 21.4182C29.0218 21.5436 29.0314 21.6784 29.0059 21.8088C28.6845 23.44 28.7282 25.1222 29.1339 26.7346C29.5395 28.3469 30.2971 29.8495 31.3523 31.1344C32.4074 32.4194 33.7339 33.4548 35.2366 34.1663C36.7392 34.8779 38.3808 35.248 40.0434 35.25C40.779 35.2503 41.5128 35.1791 42.2347 35.0375C42.3651 35.0117 42.5 35.021 42.6257 35.0645C42.7513 35.108 42.8631 35.1841 42.9497 35.285ZM41.1534 36.7025C40.7851 36.7342 40.4151 36.75 40.0434 36.75C36.6631 36.746 33.4224 35.4015 31.0322 33.0112C28.642 30.621 27.2974 27.3803 27.2934 24C27.2934 23.6292 27.3092 23.2592 27.3409 22.89C25.9086 23.6305 24.6712 24.6985 23.7292 26.0072C22.7873 27.3159 22.1673 28.8283 21.9198 30.4216C21.6723 32.0149 21.8041 33.6442 22.3047 35.177C22.8052 36.7097 23.6603 38.1028 24.8005 39.2429C25.9406 40.3831 27.3337 41.2382 28.8665 41.7387C30.3992 42.2393 32.0285 42.3711 33.6218 42.1236C35.2151 41.8761 36.7275 41.2562 38.0362 40.3142C39.3449 39.3722 40.4129 38.1348 41.1534 36.7025Z" fill="#22C1C1"/>
</svg>
